<svg width="30" height="19" fill="none" xmlns="http://www.w3.org/2000/svg"><path d="M8.844.72c1.696 0 3.136.344 4.32 1.032 1.184.688 2.084 1.696 2.7 3.024.624 1.328.936 2.948.936 4.86 0 1.8-.336 3.364-1.008 4.692-.664 1.32-1.604 2.344-2.82 3.072-1.208.72-2.636 1.08-4.284 1.08-1.688 0-3.128-.344-4.32-1.032-1.184-.688-2.088-1.696-2.712-3.024-.616-1.328-.924-2.948-.924-4.86 0-1.8.332-3.36.996-4.68C2.4 3.556 3.344 2.532 4.56 1.812 5.776 1.084 7.204.72 8.844.72Zm2.292 9.48c0-1.968-.092-3.54-.276-4.716-.176-1.176-.448-2.024-.816-2.544-.36-.52-.82-.78-1.38-.78-.512 0-.936.228-1.272.684-.336.448-.588 1.176-.756 2.184-.16 1-.24 2.324-.24 3.972 0 1.968.088 3.54.264 4.716.184 1.176.456 2.024.816 2.544.368.52.832.78 1.392.78.512 0 .936-.224 1.272-.672.336-.456.584-1.184.744-2.184.168-1.008.252-2.336.252-3.984Zm8.471-6.192h.732c.28 0 .48.072.6.216.128.144.192.416.192.816v9.948c0 .32-.064.564-.192.732a.894.894 0 0 1-.528.324l-1.2.264c-.536.128-.804.416-.804.864 0 .256.084.46.252.612.176.144.444.216.804.216h8.724c.312 0 .544-.072.696-.216.152-.152.228-.356.228-.612 0-.456-.224-.74-.672-.852l-1.068-.276a.884.884 0 0 1-.504-.324c-.112-.168-.168-.412-.168-.732v-13.2c0-.632-.324-.948-.972-.948a2.513 2.513 0 0 0-1.164.3c-.664.32-1.268.564-1.812.732-.544.168-1.208.252-1.992.252h-1.08c-.344 0-.616.092-.816.276-.2.176-.3.4-.3.672s.084.496.252.672c.168.176.432.264.792.264Z" fill="#0E8784"/></svg>