<svg width="34" height="19" fill="none" xmlns="http://www.w3.org/2000/svg"><path d="M8.844.72c1.696 0 3.136.344 4.32 1.032 1.184.688 2.084 1.696 2.7 3.024.624 1.328.936 2.948.936 4.86 0 1.8-.336 3.364-1.008 4.692-.664 1.32-1.604 2.344-2.82 3.072-1.208.72-2.636 1.08-4.284 1.08-1.688 0-3.128-.344-4.32-1.032-1.184-.688-2.088-1.696-2.712-3.024-.616-1.328-.924-2.948-.924-4.86 0-1.8.332-3.36.996-4.68C2.4 3.556 3.344 2.532 4.56 1.812 5.776 1.084 7.204.72 8.844.72Zm2.292 9.48c0-1.968-.092-3.54-.276-4.716-.176-1.176-.448-2.024-.816-2.544-.36-.52-.82-.78-1.38-.78-.512 0-.936.228-1.272.684-.336.448-.588 1.176-.756 2.184-.16 1-.24 2.324-.24 3.972 0 1.968.088 3.54.264 4.716.184 1.176.456 2.024.816 2.544.368.52.832.78 1.392.78.512 0 .936-.224 1.272-.672.336-.456.584-1.184.744-2.184.168-1.008.252-2.336.252-3.984Zm9.54 3.744-.817-.624 2.208-1.128c.872-.448 1.612-.964 2.22-1.548a5.773 5.773 0 0 0 1.38-2.052c.32-.784.48-1.696.48-2.736 0-.96-.056-1.724-.168-2.292-.104-.576-.26-.992-.468-1.248-.2-.256-.444-.384-.732-.384-.4 0-.684.184-.852.552-.16.368-.24.876-.24 1.524v1.668c0 .736-.228 1.324-.684 1.764-.448.44-1.076.66-1.884.66-.76 0-1.368-.236-1.824-.708-.448-.472-.672-1.136-.672-1.992 0-.816.236-1.58.708-2.292.48-.712 1.216-1.288 2.208-1.728.992-.44 2.26-.66 3.804-.66 1.528 0 2.78.212 3.756.636.976.424 1.696 1.012 2.16 1.764.472.744.708 1.596.708 2.556 0 .848-.24 1.632-.72 2.352s-1.228 1.412-2.244 2.076c-1.008.656-2.304 1.316-3.888 1.98l-4.44 1.86ZM18.25 15.84c0-.944.368-1.696 1.104-2.256.736-.568 1.804-.852 3.204-.852.632 0 1.228.04 1.788.12.56.072 1.108.156 1.644.252.536.096 1.084.184 1.644.264.56.072 1.152.108 1.776.108.536 0 .968-.1 1.296-.3.336-.208.64-.532.912-.972.128-.208.264-.352.408-.432a.866.866 0 0 1 .492-.096.558.558 0 0 1 .468.3c.112.176.152.46.12.852-.104 1.36-.344 2.456-.72 3.288-.376.824-.876 1.424-1.5 1.8-.616.376-1.344.564-2.184.564-.672 0-1.26-.096-1.764-.288a3.023 3.023 0 0 1-1.284-.924c-.352-.432-.656-1.016-.912-1.752-.128-.392-.248-.648-.36-.768a.528.528 0 0 0-.42-.18c-.192 0-.352.092-.48.276-.128.176-.212.468-.252.876-.056.68-.2 1.224-.432 1.632a2.03 2.03 0 0 1-.936.864c-.384.176-.844.264-1.38.264-.648 0-1.184-.236-1.608-.708-.416-.48-.624-1.124-.624-1.932Z" fill="#83888F"/></svg>