<svg width="34" height="19" fill="none" xmlns="http://www.w3.org/2000/svg"><path d="M8.844.72c1.696 0 3.136.344 4.32 1.032 1.184.688 2.084 1.696 2.7 3.024.624 1.328.936 2.948.936 4.86 0 1.8-.336 3.364-1.008 4.692-.664 1.32-1.604 2.344-2.82 3.072-1.208.72-2.636 1.08-4.284 1.08-1.688 0-3.128-.344-4.32-1.032-1.184-.688-2.088-1.696-2.712-3.024-.616-1.328-.924-2.948-.924-4.86 0-1.8.332-3.36.996-4.68C2.4 3.556 3.344 2.532 4.56 1.812 5.776 1.084 7.204.72 8.844.72Zm2.292 9.48c0-1.968-.092-3.54-.276-4.716-.176-1.176-.448-2.024-.816-2.544-.36-.52-.82-.78-1.38-.78-.512 0-.936.228-1.272.684-.336.448-.588 1.176-.756 2.184-.16 1-.24 2.324-.24 3.972 0 1.968.088 3.54.264 4.716.184 1.176.456 2.024.816 2.544.368.52.832.78 1.392.78.512 0 .936-.224 1.272-.672.336-.456.584-1.184.744-2.184.168-1.008.252-2.336.252-3.984Zm14.255.528c0-.224.036-.416.108-.576.08-.168.192-.316.336-.444l3.312-2.964c.216-.2.392-.328.528-.384.144-.056.284-.084.42-.084a.56.56 0 0 1 .432.168c.112.104.168.276.168.516l.024 8.244c0 .248.052.436.156.564.104.12.248.212.432.276l.816.288c.256.088.448.2.576.336a.66.66 0 0 1 .204.504c0 .256-.084.46-.252.612-.16.144-.416.216-.768.216h-7.848c-.688 0-1.032-.272-1.032-.816 0-.424.256-.708.768-.852l1.056-.288c.192-.056.332-.144.42-.264.096-.12.144-.304.144-.552v-4.5Zm-3.048-2.424c.424-.376.74-.728.948-1.056.208-.336.312-.664.312-.984 0-.28-.048-.54-.144-.78a6.212 6.212 0 0 0-.348-.744 5.637 5.637 0 0 1-.336-.804 3.262 3.262 0 0 1-.144-1.008c0-.504.124-.952.372-1.344.256-.4.636-.712 1.14-.936.512-.224 1.152-.336 1.92-.336.904 0 1.632.22 2.184.66.552.432.828 1.052.828 1.86 0 .32-.056.66-.168 1.02-.112.352-.344.76-.696 1.224-.352.464-.888 1.016-1.608 1.656l-6.936 6.228-.312-.744H32.28c.296 0 .532.06.708.18.184.112.276.296.276.552 0 .56-.336.84-1.008.84h-13.32c-.328 0-.584-.088-.768-.264a.904.904 0 0 1-.276-.684c0-.16.052-.328.156-.504.112-.184.304-.4.576-.648l3.72-3.384Z" fill="#83888F"/></svg>