<svg width="32" height="19" fill="none" xmlns="http://www.w3.org/2000/svg"><path d="M8.844.72c1.696 0 3.136.344 4.32 1.032 1.184.688 2.084 1.696 2.7 3.024.624 1.328.936 2.948.936 4.86 0 1.8-.336 3.364-1.008 4.692-.664 1.32-1.604 2.344-2.82 3.072-1.208.72-2.636 1.08-4.284 1.08-1.688 0-3.128-.344-4.32-1.032-1.184-.688-2.088-1.696-2.712-3.024-.616-1.328-.924-2.948-.924-4.86 0-1.8.332-3.36.996-4.68C2.4 3.556 3.344 2.532 4.56 1.812 5.776 1.084 7.204.72 8.844.72Zm2.292 9.48c0-1.968-.092-3.54-.276-4.716-.176-1.176-.448-2.024-.816-2.544-.36-.52-.82-.78-1.38-.78-.512 0-.936.228-1.272.684-.336.448-.588 1.176-.756 2.184-.16 1-.24 2.324-.24 3.972 0 1.968.088 3.54.264 4.716.184 1.176.456 2.024.816 2.544.368.52.832.78 1.392.78.512 0 .936-.224 1.272-.672.336-.456.584-1.184.744-2.184.168-1.008.252-2.336.252-3.984Zm7.343 4.428c0-.784.256-1.428.768-1.932.512-.512 1.144-.768 1.896-.768.792 0 1.388.216 1.788.648.4.432.6.988.6 1.668v1.668c0 .368.104.692.312.972.216.272.528.408.936.408.496 0 .904-.292 1.224-.876.32-.584.48-1.516.48-2.796 0-1.432-.244-2.464-.732-3.096-.48-.632-1.124-.948-1.932-.948-.24 0-.476.032-.708.096a2.972 2.972 0 0 0-.684.3c-.232.128-.484.3-.756.516-.248.192-.46.328-.636.408a1.507 1.507 0 0 1-.576.108c-.232 0-.44-.064-.624-.192-.176-.136-.264-.348-.264-.636v-7.98c0-.392.112-.7.336-.924.224-.224.58-.336 1.068-.336.184 0 .384.02.6.06.216.032.492.096.828.192.416.112.876.212 1.38.3a18.694 18.694 0 0 0 3.204.276c.928 0 1.648-.064 2.16-.192.512-.136.912-.308 1.2-.516.296-.208.532-.328.708-.36a.746.746 0 0 1 .444.012c.112.04.204.128.276.264.072.128.088.332.048.612-.144 1.136-.452 2.048-.924 2.736-.472.68-1.124 1.172-1.956 1.476-.824.296-1.84.444-3.048.444-.672 0-1.36-.04-2.064-.12a18.255 18.255 0 0 1-2.004-.36 9.798 9.798 0 0 1-1.632-.528l1.212-1.476v6.012l-.72-.228a7.349 7.349 0 0 1 1.38-.996c.464-.256.964-.44 1.5-.552a9.486 9.486 0 0 1 1.896-.168c1.256 0 2.352.208 3.288.624.944.416 1.676 1.008 2.196 1.776.528.76.792 1.66.792 2.7 0 1.192-.3 2.204-.9 3.036-.592.824-1.428 1.452-2.508 1.884-1.08.424-2.34.636-3.78.636-1.352 0-2.48-.168-3.384-.504-.896-.336-1.568-.792-2.016-1.368a3.17 3.17 0 0 1-.672-1.98Z" fill="#83888F"/></svg>